Coordinates
version=1
nRows=21
nColumns=19
inDegrees=yes

Units are S.I. units (second, meters, Newtons, ...)
If the header above contains a line with 'inDegrees', this indicates whether rotational values are in degrees (yes) or radians (no).

endheader
time	pelvis_tilt	pelvis_list	pelvis_rotation	pelvis_tx	pelvis_ty	pelvis_tz	hip_flexion_r	hip_adduction_r	hip_rotation_r	knee_angle_r	knee_angle_r_beta	ankle_angle_r	hip_flexion_l	hip_adduction_l	hip_rotation_l	knee_angle_l	knee_angle_l_beta	ankle_angle_l
     12.04666667	     -7.86951304	     -6.43850704	     -7.20907840	      2.38664678	      0.92583678	      1.01610654	     35.97952877	     11.63678821	     -8.60643428	     21.15058415	      0.36914733	     -6.20760506	    -13.90080658	     -1.40074415	     -4.03727933	     64.63252911	      1.12805044	    -31.42321342
     12.05333333	     -7.16007418	     -7.07169937	     -7.70208831	      2.38584858	      0.92273850	      1.01701415	     34.93830493	     12.30848112	     -9.49929932	     23.53865425	      0.41082702	     -4.32298544	    -13.09552747	     -2.56654680	     -5.36995609	     68.81018578	      1.20096430	    -31.65424801
     12.06000000	     -6.92424105	     -7.41813106	     -8.09459447	      2.38481117	      0.91876944	      1.01764699	     34.56416804	     12.59078638	    -10.29840566	     26.59758117	      0.46421536	     -1.87397313	    -11.55424284	     -3.50183993	     -6.23388550	     73.05714492	      1.27508772	    -31.62259981
     12.06666667	     -6.31270799	     -7.91850537	     -8.43555738	      2.38384249	      0.91518510	      1.01816501	     33.60135949	     12.99489286	    -10.77952086	     29.67346442	      0.51789965	      0.96152759	    -10.42065540	     -4.64385569	     -7.05842143	     77.05310595	      1.34483040	    -31.45935534
     12.07333333	     -6.55073865	     -7.78919285	     -8.62955871	      2.38234765	      0.91050971	      1.01836109	     33.70382646	     12.77671641	    -10.91669641	     33.12973699	      0.57822299	      3.97717338	     -7.95728217	     -5.12026210	     -7.13580347	     81.15582302	      1.41643632	    -30.69054394
     12.08000000	     -6.46126718	     -7.82453645	     -8.75206914	      2.38086922	      0.90645594	      1.01846951	     33.16207826	     12.75790153	    -10.73798322	     36.22161831	      0.63218650	      7.17061930	     -5.81611845	     -5.82335246	     -7.18568476	     84.96232895	      1.48287238	    -29.70183699
     12.08666667	     -6.42277716	     -7.79072894	     -8.79068338	      2.37922571	      0.90268222	      1.01847623	     32.47879546	     12.70852995	    -10.32952890	     39.01929713	      0.68101521	     10.36197918	     -3.46256590	     -6.48746605	     -7.01617544	     88.55350076	      1.54555015	    -28.38331398
     12.09333333	     -6.51870225	     -7.64676086	     -8.77267352	      2.37736574	      0.89923012	      1.01841752	     31.74337193	     12.60199759	     -9.71608097	     41.46483363	      0.72369787	     13.46261459	     -0.78528256	     -7.04676785	     -6.63403630	     91.90458092	      1.60403753	    -26.82865964
     12.10000000	     -6.62117210	     -7.48432519	     -8.68628584	      2.37534464	      0.89640020	      1.01829905	     30.76600992	     12.48957370	     -9.01516935	     43.43944632	      0.75816136	     16.36051046	      2.04036155	     -7.57227118	     -6.06833741	     94.95175142	      1.65722069	    -25.01114326
     12.10666667	     -6.29383727	     -7.44574714	     -8.56971017	      2.37341902	      0.89480266	      1.01821464	     28.98107738	     12.48792414	     -8.20355299	     44.82062050	      0.78226740	     19.14309467	      4.40712567	     -8.17792086	     -5.47136062	     97.53263110	      1.70226554	    -23.18971289
     12.11333333	     -6.97810987	     -7.04886819	     -8.33186075	      2.37096857	      0.89265672	      1.01790237	     28.26541942	     12.10847273	     -7.57547325	     45.96591245	      0.80225652	     21.32955963	      8.24709757	     -8.36134784	     -4.43152285	    100.02548038	      1.74577397	    -20.91496204
     12.12000000	     -7.08345062	     -6.76480813	     -8.09462145	      2.36878036	      0.89198733	      1.01766725	     26.58465302	     11.79255695	     -6.87305990	     46.51564539	      0.81185117	     23.29941189	     11.37422964	     -8.54486000	     -3.47523777	    101.94660092	      1.77930385	    -18.67899318
     12.12666667	     -7.24293790	     -6.43515914	     -7.81341827	      2.36664908	      0.89195469	      1.01742306	     24.75434465	     11.38355520	     -6.25113128	     46.62394075	      0.81374128	     24.87836242	     14.60427491	     -8.57672712	     -2.44775388	    103.45909954	      1.80570193	    -16.43116269
     12.13333333	     -7.33624546	     -6.05298415	     -7.51172780	      2.36476463	      0.89267643	      1.01724927	     22.64973757	     10.88149598	     -5.66958889	     46.31830477	      0.80840692	     26.05601707	     17.70627414	     -8.45602988	     -1.45978477	    104.51143942	      1.82406872	    -14.13084864
     12.14000000	     -7.45851487	     -5.60104023	     -7.17606492	      2.36302772	      0.89398233	      1.01721972	     20.41610851	     10.28832908	     -5.15365467	     45.63527930	      0.79648588	     26.76801716	     20.79630789	     -8.16817615	     -0.50399503	    105.14533938	      1.83513237	    -11.85870983
     12.14666667	     -7.62638787	     -5.07257842	     -6.80819708	      2.36169389	      0.89579343	      1.01731623	     18.06831156	      9.58489904	     -4.75878618	     44.59431437	      0.77831761	     26.99703882	     23.81250385	     -7.74268709	      0.34048160	    105.33534864	      1.83844865	     -9.62741318
     12.15333333	     -7.79464033	     -4.47326293	     -6.40200380	      2.36070845	      0.89811994	      1.01754664	     15.60331377	      8.80146396	     -4.44509566	     43.25332983	      0.75491302	     26.69695496	     26.68794912	     -7.17680304	      1.05886205	    105.11354795	      1.83457750	     -7.44057315
     12.16000000	     -7.78073963	     -3.85515080	     -5.91219521	      2.36025483	      0.90112590	      1.01792718	     12.77759906	      7.97824196	     -4.27206415	     41.53490829	      0.72492090	     25.84204919	     29.16243399	     -6.53207692	      1.64823874	    104.45525362	      1.82308810	     -5.38046863
     12.16666667	     -8.00488156	     -3.03670405	     -5.47463413	      2.36011487	      0.90419260	      1.01850458	     10.21339274	      6.98262993	     -4.14499113	     39.71107809	      0.69308906	     24.47828761	     31.71771509	     -5.71071530	      1.93817881	    103.42868169	      1.80517104	     -3.32749622
     12.17333333	     -7.89339170	     -2.17601976	     -5.00846514	      2.36057980	      0.90807906	      1.01921671	      7.14635092	      5.93959162	     -4.09651830	     37.51902301	      0.65483048	     22.49541466	     33.64357260	     -4.82976576	      2.00251147	    101.98241160	      1.77992886	     -1.49536785
     12.18000000	     -8.12819038	     -1.19776180	     -4.47238109	      2.36130932	      0.91178166	      1.01988548	      4.49834321	      4.79580906	     -4.29913941	     35.26413749	      0.61547531	     19.96125599	     35.80378186	     -3.81524554	      1.92846378	    100.24305352	      1.74957134	      0.17718408
